<?xml version="1.0" standalone="no"?>
<!DOCTYPE svg PUBLIC "-//W3C//DTD SVG 20010904//EN"
 "http://www.w3.org/TR/2001/REC-SVG-20010904/DTD/svg10.dtd">
<svg version="1.0" xmlns="http://www.w3.org/2000/svg"
 width="932.000000pt" height="980.000000pt" viewBox="0 0 932.000000 980.000000"
 preserveAspectRatio="xMidYMid meet">

<g transform="translate(0.000000,980.000000) scale(0.100000,-0.100000)"
fill="#000000" stroke="none">
<path d="M648 9790 c-268 -45 -510 -255 -605 -525 l-28 -80 0 -3130 0 -3130
27 -80 c41 -121 92 -199 198 -306 104 -105 180 -154 308 -198 l77 -26 4035 0
4035 0 80 27 c111 38 196 90 287 177 87 83 157 180 194 271 57 142 54 -68 54
3268 0 3021 0 3068 -20 3149 -57 237 -239 446 -470 540 -141 56 128 53 -4168
52 -2177 -1 -3978 -5 -4004 -9z m7970 -640 c18 -11 41 -34 52 -52 20 -33 20
-57 20 -3044 l0 -3011 -22 -33 c-13 -18 -36 -43 -51 -54 l-28 -21 -3907 -3
c-2624 -2 -3919 0 -3942 7 -20 6 -51 27 -70 46 l-35 36 -2 3022 c-3 3002 -3
3022 17 3055 11 18 34 41 52 52 33 20 59 20 3958 20 3899 0 3925 0 3958 -20z"/>
<path d="M2003 8535 c-198 -36 -350 -121 -499 -277 -170 -179 -241 -352 -251
-608 -6 -158 13 -275 67 -402 81 -195 255 -380 447 -477 218 -109 519 -121
755 -30 265 103 490 361 559 644 32 127 32 333 0 460 -85 350 -379 627 -731
691 -93 17 -252 16 -347 -1z"/>
<path d="M4821 6528 c-679 -683 -1239 -1245 -1245 -1247 -6 -2 -183 171 -393
385 l-383 389 -775 -780 -774 -780 -1 -467 0 -468 3410 0 3410 0 0 1093 -1
1092 -1007 1013 -1007 1014 -1234 -1244z"/>
<path d="M2735 1264 c-200 -31 -386 -166 -474 -344 -80 -162 -91 -326 -34
-492 37 -106 86 -181 173 -261 201 -186 502 -218 740 -80 141 82 259 242 296
399 24 101 15 267 -18 356 -72 194 -224 340 -412 397 -68 21 -211 34 -271 25z
m261 -269 c84 -41 148 -106 191 -193 26 -52 28 -67 28 -167 0 -100 -2 -115
-28 -167 -87 -177 -276 -270 -457 -224 -275 70 -394 376 -239 616 108 167 324
225 505 135z"/>
<path d="M4330 1024 c-171 -46 -289 -192 -298 -369 -9 -173 77 -313 238 -389
58 -28 74 -31 160 -31 86 0 102 3 160 31 114 54 181 128 220 245 47 138 8 302
-98 408 -56 56 -107 85 -189 106 -70 18 -121 18 -193 -1z"/>
<path d="M5942 1024 c-140 -37 -236 -127 -282 -265 -31 -90 -25 -210 14 -291
42 -87 105 -152 194 -195 72 -36 81 -38 172 -38 91 0 100 2 172 38 91 44 146
102 192 197 28 59 31 74 31 165 0 91 -3 106 -31 165 -57 119 -146 193 -269
225 -72 18 -123 18 -193 -1z"/>
</g>
</svg>
